<?xml version="1.0" encoding="utf-8"?>
<?xml-stylesheet type="text/xsl" href="rss1.xsl"?>
<rss version="2.0" xmlns:atom="http://www.w3.org/2005/Atom" xmlns:content="http://purl.org/rss/1.0/modules/content/" xmlns:dc="http://purl.org/dc/elements/1.1/" xmlns:media="http://search.yahoo.com/mrss/">
<channel>
 <title>Getty</title>
 <link>http://www.gettyimg.com/</link>
 <atom:link href="http://www.gettyimg.com/" rel="self" type="application/rss+xml" />

 
                <item>
                <title><![CDATA[【Singles (lossy)】M4A - Michael Jackson - Bad [E-AC3 EX | 16bits/48kHz | 7.1 | 1024kbits]]]></title>
                <link><![CDATA[https://sharemania.us/threads/michael-jackson-bad-e-ac3-ex-16bits-48khz-7-1-1024kbits.220892/]]></link>
                <description><![CDATA[<article>
<blockquote class="messageText SelectQuoteContainer ugc baseHtml">
<img src="https://is1-ssl.mzstatic.com/image/thumb/Music115/v4/8d/97/f4/8d97f427-2d17-1a51-1714-324483eb5fc1/886443546264.jpg/1200x1200bf-60.jpg" class="bbCodeImage LbImage" alt="[​IMG]" data-url="https://is1-ssl.mzstatic.com/image/thumb/Music115/v4/8d/97/f4/8d97f427-2d17-1a51-1714-324483eb5fc1/886443546264.jpg/1200x1200bf-60.jpg" style=""> <br>
<br>
<b>Single: Bad<br>
Artist: Micheal Jackson<br>
Genre: Pop<br>
Release date: 01/09/1987<br>
<b>Format: E-AC3 EX (Dolby Digital Plus - Dolby Surround EX)</b></b><br>
<b><b><br>
<div class="bbCodeBlock bbCodeVfcHH HiddenContent">
<div class="attribution type">Hidden Content:</div>
<blockquote>You must reply before you can see the hidden data contained here.</blockquote>
</div></b></b>
<div class="messageTextEndMarker">&nbsp;</div>
</blockquote>
</article>]]></description>
                <author><![CDATA[bleachlive]]></author>
                </item>

                
                <item>
                <title><![CDATA[【HD Live Performances】WEB-RiP - The 58th Academy of Country Music Awards™ AMZN 1080p WEB-DL DD+ 2.0 H.264 [CC]]]></title>
                <link><![CDATA[https://sharemania.us/threads/the-58th-academy-of-country-music-awards%E2%84%A2-amzn-1080p-web-dl-dd-2-0-h-264-cc.220893/]]></link>
                <description><![CDATA[<article>
<blockquote class="messageText SelectQuoteContainer ugc baseHtml">
<img src="https://musicrow.com/wp-content/uploads/2022/07/amazon_acm-ford-center_9x16.png" class="bbCodeImage LbImage" alt="[​IMG]" data-url="https://musicrow.com/wp-content/uploads/2022/07/amazon_acm-ford-center_9x16.png" style=""> <br>
<img src="https://i.postimg.cc/09T7RXYg/The-58th-Academy-of-Country-Music-Awards-AMZN-1080p-WEB-DL-DD-2-0-H-264-CC-mkv.jpg" class="bbCodeImage LbImage" alt="[​IMG]" data-url="https://i.postimg.cc/09T7RXYg/The-58th-Academy-of-Country-Music-Awards-AMZN-1080p-WEB-DL-DD-2-0-H-264-CC-mkv.jpg" style=""> <br>
<div class="ToggleTriggerAnchor bbCodeSpoilerContainer">
<button type="button" class="button bbCodeSpoilerButton ToggleTrigger Tooltip JsOnly" data-target="> .SpoilerTarget"><span>Spoiler: <span class="SpoilerTitle">Media Info</span></span></button>
<div class="SpoilerTarget bbCodeSpoilerText">General<br>
Unique ID : 147694936107482561080558109163953208254 (0x6F1D028FE8AFB5B2D09028B925323BBE)<br>
Complete name : The 58th Academy of Country Music Awards™ AMZN 1080p WEB-DL DD+ 2.0 H.264 [CC].mkv<br>
Format : Matroska<br>
Format version : Version 4<br>
File size : 11.0 GiB<br>
Duration : 2 h 10 min<br>
Overall bit rate : 12.0 Mb/s<br>
Frame rate : 29.970 FPS<br>
Encoded date : 2023-05-14 22:15:18 UTC<br>
Writing application : mkvmerge v74.0.0 ('You Oughta Know') 64-bit<br>
Writing library : libebml v1.4.4 + libmatroska v1.7.1<br>
<br>
Video<br>
ID : 1<br>
Format : AVC<br>
Format/Info : Advanced Video Codec<br>
Format profile : High@L4<br>
Format settings : CABAC / 4 Ref Frames<br>
Format settings, CABAC : Yes<br>
Format settings, Reference frames : 4 frames<br>
Codec ID : V_MPEG4/ISO/AVC<br>
Duration : 2 h 10 min<br>
Bit rate : 11.8 Mb/s<br>
Width : 1 920 pixels<br>
Height : 1 080 pixels<br>
Display aspect ratio : 16:9<br>
Frame rate mode : Constant<br>
Frame rate : 29.970 (30000/1001) FPS<br>
Color space : YUV<br>
Chroma subsampling : 4:2:0<br>
Bit depth : 8 bits<br>
Scan type : Progressive<br>
Bits/(Pixel*Frame) : 0.190<br>
Stream size : 10.8 GiB (98%)<br>
Default : Yes<br>
Forced : No<br>
Color range : Limited<br>
Color primaries : BT.709<br>
Transfer characteristics : BT.709<br>
Matrix coefficients : BT.709<br>
<br>
Audio<br>
ID : 2<br>
Format : E-AC-3<br>
Format/Info : Enhanced AC-3<br>
Commercial name : Dolby Digital Plus<br>
Codec ID : A_EAC3<br>
Duration : 2 h 10 min<br>
Bit rate mode : Constant<br>
Bit rate : 224 kb/s<br>
Channel(s) : 2 channels<br>
Channel layout : L R<br>
Sampling rate : 48.0 kHz<br>
Frame rate : 31.250 FPS (1536 SPF)<br>
Compression mode : Lossy<br>
Stream size : 210 MiB (2%)<br>
Language : English<br>
Service kind : Complete Main<br>
Default : Yes<br>
Forced : No<br>
<br>
Text<br>
ID : 3<br>
Format : UTF-8<br>
Codec ID : S_TEXT/UTF8<br>
Codec ID/Info : UTF-8 Plain Text<br>
Duration : 2 h 10 min<br>
Bit rate : 86 b/s<br>
Frame rate : 0.304 FPS<br>
Count of elements : 2379<br>
Stream size : 82.9 KiB (0%)<br>
Language : English<br>
Default : No<br>
Forced : No</div>
</div>Ripped by me <img src="styles/default/xenforo/smilies/big_smile-48.png" class="mceSmilie" alt=":)" title="Smile    :)"><br>
<div class="bbCodeBlock bbCodeVfcHH HiddenContent">
<div class="attribution type">Hidden Content:</div>
<blockquote>You must either reply or click 'Like' to see the hidden information contained here.</blockquote>
</div>
<div class="messageTextEndMarker">&nbsp;</div>
</blockquote>
</article>]]></description>
                <author><![CDATA[szymek04sawicki]]></author>
                </item>

                </channel></rss>